<?xml version="1.0" encoding="UTF-8"?>
<svg id="Layer_2" xmlns="http://www.w3.org/2000/svg" xmlns:xlink="http://www.w3.org/1999/xlink" viewBox="0 0 820.99 763.69">
  <defs>
    <style>
      .cls-1 {
        fill: url(#linear-gradient-8);
      }

      .cls-2 {
        fill: url(#linear-gradient-7);
      }

      .cls-3 {
        fill: url(#linear-gradient-5);
      }

      .cls-4 {
        fill: url(#linear-gradient-6);
      }

      .cls-5 {
        fill: url(#linear-gradient-4);
      }

      .cls-6 {
        fill: url(#linear-gradient-3);
      }

      .cls-7 {
        fill: url(#linear-gradient-2);
      }

      .cls-8 {
        fill: url(#linear-gradient);
      }
    </style>
    <linearGradient id="linear-gradient" x1="92.06" y1="33.9" x2="495.34" y2="334.18" gradientUnits="userSpaceOnUse">
      <stop offset=".05" stop-color="#89d2e7"/>
      <stop offset=".14" stop-color="#73c9dc"/>
      <stop offset=".23" stop-color="#6bc6db"/>
      <stop offset=".37" stop-color="#44bede"/>
      <stop offset=".58" stop-color="#1db0e0"/>
      <stop offset=".91" stop-color="#1d67ae"/>
    </linearGradient>
    <linearGradient id="linear-gradient-2" x1="706.74" y1="479.58" x2="798.14" y2="614.67" gradientUnits="userSpaceOnUse">
      <stop offset="0" stop-color="#00b2d7"/>
      <stop offset=".29" stop-color="#0aa1cf"/>
      <stop offset=".52" stop-color="#1496c7"/>
      <stop offset=".78" stop-color="#1667ab"/>
    </linearGradient>
    <linearGradient id="linear-gradient-3" x1=".94" y1="246.52" x2="177.88" y2="246.52" gradientUnits="userSpaceOnUse">
      <stop offset=".08" stop-color="#262963"/>
      <stop offset=".35" stop-color="#2b3072"/>
      <stop offset=".6" stop-color="#38519d"/>
      <stop offset=".89" stop-color="#445ea6"/>
    </linearGradient>
    <linearGradient id="linear-gradient-4" x1="100.83" y1="739.32" x2="264.73" y2="191.64" gradientUnits="userSpaceOnUse">
      <stop offset=".02" stop-color="#84a9d8"/>
      <stop offset=".07" stop-color="#8a86bf"/>
      <stop offset=".15" stop-color="#9a80b7"/>
      <stop offset=".23" stop-color="#9669a8"/>
      <stop offset=".3" stop-color="#915a9e"/>
      <stop offset=".44" stop-color="#8f599d"/>
      <stop offset=".54" stop-color="#7e539b"/>
      <stop offset=".65" stop-color="#604090"/>
      <stop offset=".78" stop-color="#3a367e"/>
      <stop offset=".93" stop-color="#2d3070"/>
    </linearGradient>
    <linearGradient id="linear-gradient-5" x1="505.53" y1="6.28" x2="614.76" y2="142.05" xlink:href="#linear-gradient-3"/>
    <linearGradient id="linear-gradient-6" x1="734.86" y1="726.75" x2="291.23" y2="426.63" gradientUnits="userSpaceOnUse">
      <stop offset=".05" stop-color="#61c2d3"/>
      <stop offset=".14" stop-color="#4bbcd2"/>
      <stop offset=".24" stop-color="#24b6cf"/>
      <stop offset=".37" stop-color="#00b2ce"/>
      <stop offset=".58" stop-color="#158bb6"/>
      <stop offset=".91" stop-color="#2b3f78"/>
    </linearGradient>
    <linearGradient id="linear-gradient-7" x1="746.18" y1="81.76" x2="506.73" y2="609.96" gradientUnits="userSpaceOnUse">
      <stop offset=".02" stop-color="#e4c3dc"/>
      <stop offset=".07" stop-color="#d5a6cb"/>
      <stop offset=".15" stop-color="#a063a2"/>
      <stop offset=".23" stop-color="#826fad"/>
      <stop offset=".3" stop-color="#7475b4"/>
      <stop offset=".44" stop-color="#6680bf"/>
      <stop offset=".54" stop-color="#2996d0"/>
      <stop offset=".65" stop-color="#1d6fb0"/>
      <stop offset=".78" stop-color="#2b468c"/>
      <stop offset=".93" stop-color="#292963"/>
    </linearGradient>
    <linearGradient id="linear-gradient-8" x1="132.42" y1="678.86" x2="402.31" y2="678.86" xlink:href="#linear-gradient-3"/>
  </defs>
  <g id="Layer_3">
    <g>
      <path class="cls-8" d="M657.7,272.57c0,.2-.22.2-.22.41-20.86,35.55-50.95,74.58-92.01,117.9-27.23-29.22-58.19-60.48-94.21-93.38-20.64-19-40.63-36.37-59.95-51.9-42.6-35.14-81.91-62.32-117.93-82.96-2.42-1.43-5.05-2.86-7.47-4.29-8.34-4.9-16.47-9.2-24.6-13.28-60.17-24.32-109.8-29.01-150.87-22.07-11.86,2.04-23.06,4.9-33.38,8.58-30.3,10.42-55.12,27.38-75.54,45.56.66-8.17,2.2-15.94,4.39-23.7,2.2-8.99,5.71-17.57,9.66-25.95,7.25-14.3,16.69-28.2,28.11-41.68,3.29-4.09,7.03-7.97,10.76-12.05,4.83-5.11,10.1-10.22,15.59-15.32,9.88-8.99,20.64-17.57,32.72-25.34,22.18-14.3,48.31-25.54,79.06-30.44,13.18-1.02,26.13-2.04,39.09-2.66,51.83,1.02,115.29,19.21,192.59,66.81.66.2,1.1.61,1.76,1.02,37.11,22.88,77.74,52.31,121.88,90.31,12.74,10.62,25.69,22.27,39.09,34.53,30.52,27.99,57.54,54.76,81.47,79.89Z"/>
      <path class="cls-7" d="M818.45,596.84c-13.62,11.65-30.3,23.91-50.73,34.12-.22,0-.44.2-.66.2-7.03,3.68-14.71,6.95-22.62,9.81-9.44,3.27-19.54,6.13-30.3,8.17-5.27-41.89-24.38-92.56-65-153.45-.66-1.23-1.54-2.25-2.42-3.47,42.16-40.25,75.1-77.44,100.36-111.56,65.22,93.79,79.93,163.87,71.37,216.18Z"/>
      <path class="cls-6" d="M177.88,256.84c-41.28,40.87-73.79,78.67-98.82,113.2C18.89,288.51-3.07,227.83,1.54,177.15c20.42-18.19,45.24-35.15,75.54-45.56,10.32-3.68,21.52-6.54,33.38-8.58,11.64,37.8,33.38,81.73,67.42,133.84Z"/>
      <path class="cls-5" d="M411.31,245.6c-28.77,23.5-59.07,50.06-91.35,80.3-19.32,18.19-36.89,35.76-52.92,52.72-37.55,39.23-66.76,75.4-89.16,108.5-.88,1.43-1.98,2.86-2.85,4.29-7.03,10.22-13.18,20.02-18.89,29.83-26.13,55.99-31.18,102.16-23.72,140.38,2.2,11.03,5.27,21.45,9.22,31.06,11.2,28.2,29.43,51.29,48.97,70.29-8.78-.61-17.13-2.04-25.47-4.09-9.66-2.04-18.89-5.31-27.89-8.99-15.37-6.74-30.3-15.53-44.8-26.15-4.39-3.07-8.56-6.54-12.96-10.01-5.49-4.5-10.98-9.4-16.47-14.51-9.66-9.2-18.89-19.21-27.23-30.44-15.37-20.64-27.45-44.95-32.94-73.56-.88-12.26-1.98-24.32-2.85-36.37,1.1-48.63,21.08-108.09,73.13-180.83,1.76-2.66,3.73-5.31,5.93-7.97,25.03-34.53,57.54-72.33,98.82-113.2,9.22-9.4,19.11-19,29.43-28.61,27.45-25.95,53.58-49.04,78.62-69.88,2.42,1.43,5.05,2.86,7.47,4.29,36.01,20.64,75.32,47.81,117.93,82.96Z"/>
      <path class="cls-3" d="M697.89,99.92c-44.14,4.7-97.06,21.86-160.75,58.23-44.14-38-84.77-67.43-121.88-90.31-.66-.41-1.1-.82-1.76-1.02C512.11,8.17,586.11-4.9,641.67,2.86c12.52,12.67,25.69,28.2,36.67,47.2,0,.2.22.41.22.61,3.95,6.54,7.47,13.69,10.54,21.05,3.51,8.79,6.59,18.19,8.78,28.2Z"/>
      <path class="cls-4" d="M818.45,596.84c-.66,5.11-1.76,9.81-2.85,14.3-9.88,38.41-31.84,66.2-53.14,86.43-2.42,2.45-5.05,4.7-7.47,6.95-1.76,1.63-3.73,3.27-5.71,4.9-5.93,4.9-12.3,10.01-19.32,14.92-8.56,5.93-17.79,11.65-28.11,16.96-59.73,30.44-151.09,41.68-286.8-44.75-4.17-2.66-8.34-5.31-12.74-8.38-36.23-23.91-75.32-54.76-117.71-93.99-12.96-11.85-26.13-24.52-39.75-38-24.38-24.32-46.77-47.2-66.98-69.06,22.4-33.1,51.61-69.27,89.16-108.5,13.4,16.76,27.67,34.12,43.04,52.31,24.38,29.01,47.87,54.56,70.49,77.44.22,0,.44.2.44.41,5.49,4.9,10.98,9.4,16.47,13.69,43.26,36.17,82.57,63.14,118.58,82.75,4.17,2.25,8.13,4.29,12.08,6.33,77.3,40.05,138.35,46.38,186,37.6,10.76-2.04,20.86-4.9,30.3-8.17,7.91-2.86,15.59-6.13,22.62-9.81.22,0,.44-.2.66-.2,20.42-10.22,37.11-22.48,50.73-34.12Z"/>
      <path class="cls-2" d="M748.84,378.21c-.66.82-1.1,1.63-1.76,2.45-25.25,34.12-58.19,71.31-100.36,111.56-15.15,14.3-31.18,29.22-48.75,44.34-28.99,25.34-56.22,48.02-81.91,68.66-36.01-19.62-75.32-46.59-118.58-82.75,20.86-14.3,42.82-29.83,65.88-46.59,31.18-22.68,58.63-44.54,83.23-65.59,0-.2.22-.41.44-.41,6.37-6.33,12.52-12.87,18.45-19,41.07-43.32,71.15-82.35,92.01-117.9,0-.2.22-.2.22-.41,42.82-71.72,49.63-128.32,40.19-172.66-2.2-10.01-5.27-19.41-8.78-28.2-3.07-7.36-6.59-14.51-10.54-21.05,0-.2-.22-.41-.22-.61-10.98-19-24.16-34.53-36.67-47.2,5.49.61,10.54,1.63,15.37,2.66,41.28,9.2,71.15,29.63,92.89,49.45,2.64,2.25,5.05,4.7,7.47,6.95,1.76,1.63,3.51,3.47,5.27,5.31,5.27,5.52,10.76,11.44,16.03,17.98,6.37,7.97,12.52,16.55,18.23,26.15,32.72,55.58,44.8,140.58-48.09,266.85Z"/>
      <path class="cls-1" d="M402.31,688.18c-89.82,57.82-156.36,79.28-211.69,74.78-19.54-19-37.77-42.09-48.97-70.29-3.95-9.6-7.03-20.02-9.22-31.06,42.6-11.24,92.23-32.9,151.74-67.02.22,0,.22-.2.44-.41,42.38,39.23,81.47,70.08,117.71,93.99Z"/>
    </g>
  </g>
</svg>